<?xml version="1.0" encoding="utf-8"?>
<!-- Generator: Adobe Illustrator 16.0.0, SVG Export Plug-In . SVG Version: 6.00 Build 0)  -->
<!DOCTYPE svg PUBLIC "-//W3C//DTD SVG 1.1//EN" "http://www.w3.org/Graphics/SVG/1.1/DTD/svg11.dtd">
<svg version="1.1" id="Layer_1" xmlns="http://www.w3.org/2000/svg" xmlns:xlink="http://www.w3.org/1999/xlink" x="0px" y="0px"
	 width="137px" height="56px" viewBox="0 0 137 56" enable-background="new 0 0 137 56" xml:space="preserve">
<path d="M55,53H3V3.001h52V14h3V0H0l0.009,56L58,55.999V47h-3V53z M28.904,26.513c1.236-0.931,1.854-2.354,1.854-4.266
	c0-1.585-0.548-3.008-1.645-4.266c-0.606-0.675-1.51-1.213-2.71-1.608C25.2,15.978,23.656,16,22,16h-9v24h10
	c3.359,0,6.02-0.535,7.373-2.05c1.166-1.307,1.75-2.811,1.75-4.514c0-1.537-0.45-2.825-1.347-3.86
	c-0.898-1.039-2.106-1.72-3.622-2.047c0.42-0.188,0.712-0.322,0.875-0.404C28.191,27.045,28.483,26.84,28.904,26.513z
	 M18.056,20.395h2.625c1.609,0,2.752,0.174,3.428,0.523c0.677,0.35,1.015,1.067,1.015,2.151s-0.367,1.791-1.102,2.114
	c-0.734,0.328-1.861,0.489-3.377,0.489h-2.59V20.395z M25.317,35.028c-0.782,0.387-1.955,0.577-3.517,0.577h-3.744v-5.63h3.219
	c1.819,0,3.143,0.181,3.972,0.541c0.827,0.362,1.241,1.11,1.241,2.24C26.489,33.886,26.099,34.644,25.317,35.028z M52,30
	c0-2.727-1.006-4.99-2.814-6.553c-1.808-1.562-4.006-2.341-6.596-2.341c-2.588,0-4.833,0.873-6.734,2.62
	c-1.902,1.75-2.852,4.104-2.852,7.063c0,2.963,0.933,5.322,2.799,7.084c1.865,1.758,4.227,2.641,7.085,2.641
	c2.857,0,5.347-1.005,7.47-3.008l-2.938-3.182c-1.19,1.234-2.707,1.854-4.549,1.854c-1.143,0-2.169-0.328-3.079-0.98
	C38.881,34.547,38.162,33.027,38,32h14V30z M38.321,28.938c0.139-1.07,0.642-1.925,1.505-2.553c0.863-0.629,1.813-0.944,2.852-0.944
	c1.038,0,1.918,0.304,2.641,0.911c0.723,0.605,1.143,1.468,1.26,2.586H38.321z M61.575,21.945c-1.015,0.535-1.861,1.187-2.537,1.958
	L59,21.001h-5V40h5l0.038-7.914c0-1.818,0.386-3.282,1.155-4.389c0.77-1.107,1.936-1.662,3.5-1.662h1.015l-0.036-4.929
	C63.622,21.129,62.59,21.407,61.575,21.945z M67,40h5V14h-5V40z M76,40h5V21.001h-5V40z M78.496,19.008
	c0.701,0,1.293-0.243,1.776-0.723c0.483-0.483,0.725-1.075,0.725-1.775c0-0.701-0.242-1.295-0.725-1.775
	c-0.483-0.483-1.075-0.726-1.776-0.726s-1.293,0.242-1.776,0.726c-0.483,0.48-0.725,1.074-0.725,1.775
	c0,0.7,0.242,1.292,0.725,1.775C77.203,18.765,77.795,19.008,78.496,19.008z M95.493,21.106c-1.982,0-3.767,0.802-5.354,2.412
	L90,21.001h-5V40h5V30c0-1.469,0.529-2.838,1.312-3.598c0.78-0.758,1.697-1.136,2.746-1.136C96.18,25.267,97,27.108,97,30v10h5V29
	c0-2.331-0.18-4.396-1.52-5.797C99.137,21.803,97.476,21.106,95.493,21.106z M120.983,23.447c-1.808-1.562-4.006-2.341-6.596-2.341
	c-2.588,0-4.833,0.873-6.734,2.62c-1.902,1.75-2.852,4.104-2.852,7.063c0,2.963,0.932,5.322,2.799,7.084
	c1.865,1.758,4.227,2.641,7.084,2.641s5.348-1.005,7.47-3.008l-2.938-3.182c-1.19,1.234-2.706,1.854-4.549,1.854
	c-1.143,0-2.17-0.328-3.079-0.98c-0.91-0.651-1.426-2.171-1.588-3.198h14v-2C124,27.273,122.791,25.01,120.983,23.447z
	 M110.118,28.938c0.139-1.07,0.642-1.925,1.505-2.553c0.863-0.629,1.814-0.944,2.852-0.944s1.917,0.304,2.641,0.911
	c0.723,0.605,1.143,1.468,1.26,2.586H110.118z M133.859,21.945C132.844,22.48,131.676,23.229,131,24v-2.999h-5V40h5v-8
	c0-1.818,0.708-3.196,1.477-4.303c0.77-1.107,1.936-1.662,3.499-1.662L137,25.999v-5C135.95,21.021,134.874,21.407,133.859,21.945z"
	/>
</svg>
