<?xml version="1.0" encoding="utf-8"?>
<!-- Generator: Adobe Illustrator 16.0.0, SVG Export Plug-In . SVG Version: 6.00 Build 0)  -->
<!DOCTYPE svg PUBLIC "-//W3C//DTD SVG 1.1//EN" "http://www.w3.org/Graphics/SVG/1.1/DTD/svg11.dtd">
<svg version="1.1" id="Layer_1" xmlns="http://www.w3.org/2000/svg" xmlns:xlink="http://www.w3.org/1999/xlink" x="0px" y="0px"
	 width="319.617px" height="368.594px" viewBox="0 0 319.617 368.594" enable-background="new 0 0 319.617 368.594"
	 xml:space="preserve">
<path fill="#FFFFFF" d="M160.211,368.594L0.404,276.795L0,92.5L159.404,0l159.81,91.801l0.403,184.297L160.211,368.594z
	 M4.768,274.264l155.432,89.285l155.043-89.965l-0.392-179.251L159.416,5.045L4.375,95.013L4.768,274.264z M76.233,157.238v48.829
	h-4.219V92.316h35.547c11.77,0,20.832,2.956,27.188,8.867c6.354,5.912,9.531,13.764,9.531,23.555c0,9.896-3.164,17.787-9.492,23.672
	s-15.404,8.828-27.227,8.828H76.233z M76.233,153.02h31.328c10.781,0,18.893-2.682,24.336-8.047
	c5.441-5.365,8.164-12.057,8.164-20.078c0-8.229-2.709-15.013-8.125-20.352c-5.418-5.338-13.543-8.008-24.375-8.008H76.233V153.02z
	 M230.891,64.137l-4.068-2.342L87.008,304.729l4.064,2.34L230.891,64.137z M193.907,266.86v48.828h-4.219v-113.75h35.547
	c11.77,0,20.832,2.957,27.188,8.867c6.354,5.912,9.531,13.764,9.531,23.555c0,9.896-3.164,17.787-9.492,23.672
	c-6.328,5.887-15.404,8.828-27.227,8.828H193.907z M193.907,262.641h31.328c10.781,0,18.893-2.682,24.336-8.047
	c5.441-5.363,8.164-12.057,8.164-20.078c0-8.229-2.709-15.012-8.125-20.352c-5.418-5.338-13.543-8.008-24.375-8.008h-31.328V262.641
	z"/>
</svg>
